HIERARCHY
ROOT Hips
{
	OFFSET 53.967602 -6.952135 91.669800
	CHANNELS 6 Xposition Yposition Zposition Xrotation Yrotation Zrotation
	JOINT spine
	{
		OFFSET 0.000000 -0.393702 6.846367
		CHANNELS 3 Xrotation Yrotation Zrotation
		JOINT spine1
		{
			OFFSET 0.000000 -0.000001 9.496208
			CHANNELS 3 Xrotation Yrotation Zrotation
			JOINT spine2
			{
				OFFSET 0.000000 -0.000001 9.099091
				CHANNELS 3 Xrotation Yrotation Zrotation
				JOINT Neck
				{
					OFFSET 0.000000 -1.113784 23.361206
					CHANNELS 3 Xrotation Yrotation Zrotation
					JOINT Head
					{
						OFFSET 0.000000 -0.000001 7.058014
						CHANNELS 3 Xrotation Yrotation Zrotation
						End Site
						{
							OFFSET 0.000000 5.634187 17.084396
						}
					}
				}
				JOINT RightShoulder
				{
					OFFSET -3.831360 0.533490 9.826309
					CHANNELS 3 Xrotation Yrotation Zrotation
					JOINT RightArm
					{
						OFFSET 0.000000 -0.000002 12.888092
						CHANNELS 3 Xrotation Yrotation Zrotation
						JOINT RightArmRoll
						{
							OFFSET 0.000000 -0.000001 6.506165
							CHANNELS 3 Xrotation Yrotation Zrotation
							JOINT RightForeArm
							{
								OFFSET 0.000000 -0.000003 18.950104
								CHANNELS 3 Xrotation Yrotation Zrotation
								JOINT RightForeArmRoll
								{
									OFFSET 0.000000 -0.000001 7.300919
									CHANNELS 3 Xrotation Yrotation Zrotation
									JOINT RightHand
									{
										OFFSET 0.000000 -0.000002 14.651398
										CHANNELS 3 Xrotation Yrotation Zrotation
										End Site
										{
											OFFSET 0.000000 0.000000 0.100006
										}
									}
								}
							}
						}
					}
				}
				JOINT LeftShoulder
				{
					OFFSET 3.831360 0.533490 9.826309
					CHANNELS 3 Xrotation Yrotation Zrotation
					JOINT LeftArm
					{
						OFFSET 0.000000 -0.000002 12.888092
						CHANNELS 3 Xrotation Yrotation Zrotation
						JOINT LeftArmRoll
						{
							OFFSET 0.000000 -0.000001 6.506165
							CHANNELS 3 Xrotation Yrotation Zrotation
							JOINT LeftForeArm
							{
								OFFSET 0.000000 -0.000003 18.950104
								CHANNELS 3 Xrotation Yrotation Zrotation
								JOINT LeftForeArmRoll
								{
									OFFSET 0.000000 -0.000001 7.300919
									CHANNELS 3 Xrotation Yrotation Zrotation
									JOINT LeftHand
									{
										OFFSET 0.000000 -0.000002 14.651398
										CHANNELS 3 Xrotation Yrotation Zrotation
										End Site
										{
											OFFSET 0.000000 0.000000 0.100006
										}
									}
								}
							}
						}
					}
				}
			}
		}
	}
	JOINT RightUpLeg
	{
		OFFSET -6.068371 0.933477 -1.112778
		CHANNELS 3 Xrotation Yrotation Zrotation
		JOINT RightUpLegRoll
		{
			OFFSET 0.000000 -0.000003 17.179596
			CHANNELS 3 Xrotation Yrotation Zrotation
			JOINT RightLeg
			{
				OFFSET 0.000000 0.000003 -21.274300
				CHANNELS 3 Xrotation Yrotation Zrotation
				JOINT RightLegRoll
				{
					OFFSET 0.000000 -0.000003 21.343903
					CHANNELS 3 Xrotation Yrotation Zrotation
					JOINT RightFoot
					{
						OFFSET 0.000000 -0.000003 17.765198
						CHANNELS 3 Xrotation Yrotation Zrotation
						JOINT RightToeBase
						{
							OFFSET 0.000000 -0.000002 14.850792
							CHANNELS 3 Xrotation Yrotation Zrotation
							End Site
							{
								OFFSET 0.006294 0.829004 7.192139
							}
						}
					}
				}
			}
		}
	}
	JOINT LeftUpLeg
	{
		OFFSET 6.068371 0.933477 -1.112778
		CHANNELS 3 Xrotation Yrotation Zrotation
		JOINT LeftUpLegRoll
		{
			OFFSET 0.000000 -0.000003 17.179703
			CHANNELS 3 Xrotation Yrotation Zrotation
			JOINT LeftLeg
			{
				OFFSET 0.000000 -0.000003 21.274200
				CHANNELS 3 Xrotation Yrotation Zrotation
				JOINT LeftLegRoll
				{
					OFFSET 0.000000 -0.000003 21.541199
					CHANNELS 3 Xrotation Yrotation Zrotation
					JOINT LeftFoot
					{
						OFFSET 0.000000 -0.000003 17.567902
						CHANNELS 3 Xrotation Yrotation Zrotation
						JOINT LeftToeBase
						{
							OFFSET 0.000000 -0.000003 14.850800
							CHANNELS 3 Xrotation Yrotation Zrotation
							End Site
							{
								OFFSET -0.028210 0.829004 7.192123
							}
						}
					}
				}
			}
		}
	}
}
MOTION
Frames: 5
Frame Time: 0.041667
54.406902 -6.653277 91.654099 -6.211324 -0.903970 0.943710 -1.662234 -0.103274 -0.160051 0.678100 -0.202144 -0.315858 2.323155 -0.205661 -0.313440 25.342684 5.118902 -0.336526 -6.397363 -3.176269 -0.080641 12.518595 -65.045251 13.422695 -81.061546 -112.479309 -101.668493 0.000001 0.000001 0.000001 61.821989 -8.075376 3.289505 0.000001 0.000000 -3.000003 -5.000210 -7.998747 0.000149 0.295977 65.715921 0.460076 -69.834757 119.169903 80.768647 -0.000000 0.000006 0.000002 57.588262 13.557589 -5.505731 -0.000002 -0.000013 3.001089 -5.000229 7.998771 -0.000143 3.423294 -174.474819 2.437254 179.999991 -0.000004 -1.211999 174.996099 -2.030239 -0.232730 -0.000001 -0.000003 0.039845 68.688542 6.927250 2.058809 25.456856 -7.355621 -0.000002 6.201583 176.291772 0.166158 -0.000005 0.000011 -1.244160 -5.314632 0.988646 0.202085 -0.000007 -0.000000 -0.061593 69.264163 -6.922299 -2.033464 25.456851 7.355619 0.000012 
54.404602 -6.662165 91.656998 -6.208035 -0.904158 0.948323 -1.661423 -0.103304 -0.160425 0.679708 -0.202624 -0.316876 2.324765 -0.206150 -0.314453 25.330294 5.113502 -0.338984 -6.379875 -3.175095 -0.083362 12.442468 -65.031078 13.339930 -81.257155 -112.359979 -101.780897 0.000001 -0.000000 0.000001 61.867389 -8.042169 3.268669 0.000001 0.000004 -2.999998 -5.000209 -7.998747 0.000147 0.267080 65.699173 0.490821 -69.976299 119.039501 80.753586 0.000000 0.000008 0.000001 57.653681 13.492218 -5.467258 -0.000003 -0.000015 3.001089 -5.000232 7.998771 -0.000144 3.423132 -174.474805 2.437939 179.999991 -0.000005 -1.211998 174.996208 -2.031233 -0.232813 -0.000001 -0.000002 0.039845 68.688856 6.927235 2.058787 25.456853 -7.355619 -0.000003 6.217975 176.294873 0.168958 -0.000005 0.000011 -1.244190 -5.279493 0.986234 0.200610 -0.000007 -0.000001 -0.060197 69.248310 -6.922315 -2.033758 25.456849 7.355619 0.000013 
54.403004 -6.673436 91.656197 -6.208564 -0.904117 0.952069 -1.659782 -0.103353 -0.160513 0.682988 -0.203285 -0.317328 2.328044 -0.206818 -0.314899 25.314679 5.107818 -0.341261 -6.358827 -3.172989 -0.085993 12.360773 -65.015218 13.251221 -81.449173 -112.242602 -101.892359 -0.000001 0.000001 0.000003 61.916696 -8.007866 3.247267 0.000001 0.000001 -3.000000 -5.000212 -7.998741 0.000153 0.237642 65.681408 0.522076 -70.118715 118.913102 80.730555 0.000000 0.000009 0.000001 57.714839 13.425959 -5.427312 -0.000003 -0.000013 3.001089 -5.000232 7.998773 -0.000147 3.427252 -174.474846 2.439075 179.999991 -0.000004 -1.211999 174.996605 -2.031234 -0.232799 -0.000001 -0.000003 0.039846 68.689362 6.927194 2.058749 25.456853 -7.355620 -0.000003 6.234073 176.295980 0.170196 -0.000005 0.000011 -1.244230 -5.253046 0.984432 0.199513 -0.000008 -0.000000 -0.059203 69.236576 -6.922349 -2.033999 25.456846 7.355618 0.000013 
54.406002 -6.668034 91.656799 -6.212839 -0.903909 0.955113 -1.657335 -0.103406 -0.160331 0.687980 -0.204131 -0.317257 2.333035 -0.207671 -0.314821 25.295440 5.102051 -0.343538 -6.334195 -3.170447 -0.088696 12.271504 -64.997289 13.154392 -81.635862 -112.127575 -102.001895 -0.000001 0.000000 -0.000001 61.969241 -7.972845 3.225256 -0.000000 0.000006 -3.000000 -5.000210 -7.998742 0.000149 0.207152 65.662365 0.554380 -70.261425 118.790063 80.699149 0.000001 0.000008 0.000003 57.772745 13.358593 -5.385595 -0.000004 -0.000013 3.001089 -5.000230 7.998771 -0.000145 3.435598 -174.474874 2.440739 179.999991 -0.000005 -1.211999 174.997342 -2.032230 -0.232860 -0.000001 -0.000003 0.039847 68.689983 6.927163 2.058802 25.456856 -7.355621 -0.000003 6.251510 176.296089 0.170128 -0.000005 0.000011 -1.244260 -5.232042 0.983122 0.198663 -0.000007 -0.000000 -0.058467 69.227505 -6.922401 -2.034175 25.456854 7.355618 0.000013 
54.403004 -6.683527 91.657791 -6.220337 -0.903556 0.957542 -1.654163 -0.103459 -0.159912 0.694458 -0.205134 -0.316727 2.339515 -0.208676 -0.314283 25.273090 5.096138 -0.345785 -6.306371 -3.167466 -0.091458 12.175499 -64.977352 13.050340 -81.818829 -112.014754 -102.110263 -0.000002 0.000000 -0.000000 62.024729 -7.937037 3.202723 -0.000000 0.000004 -3.000003 -5.000210 -7.998745 0.000149 0.175744 65.642400 0.587605 -70.405972 118.669947 80.662171 -0.000001 0.000008 -0.000001 57.827879 13.290142 -5.342263 -0.000003 -0.000012 3.001088 -5.000233 7.998771 -0.000144 3.447606 -174.474956 2.442846 179.999991 -0.000004 -1.211999 174.998285 -2.033241 -0.232915 -0.000001 -0.000003 0.039847 68.690728 6.927175 2.058860 25.456851 -7.355620 -0.000003 6.270047 176.296226 0.168997 -0.000005 0.000010 -1.244300 -5.215878 0.982267 0.198035 -0.000007 -0.000000 -0.057960 69.220846 -6.922392 -2.034290 25.456851 7.355618 0.000012 
